<svg xmlns="http://www.w3.org/2000/svg" width="25" height="22" viewBox="0 0 24 22"><path fill="#fff" d="M7.152 8.21h9.696l-3.403-6.702a1.048 1.048 0 01.426-1.39.99.99 0 011.352.437l3.879 7.656h3.566c.734 0 1.332.652 1.332 1.375 0 .8-.598 1.375-1.332 1.375l-2.164 8.953C20.172 21.141 19.14 22 17.918 22H6.047c-1.188 0-2.254-.86-2.55-2.086l-2.165-8.953C.598 10.96 0 10.387 0 9.586 0 8.863.598 8.21 1.332 8.21h3.566L8.778.555a.99.99 0 011.35-.438c.49.262.68.883.427 1.39zm.809 4.813c0-.343-.262-.687-.664-.687-.332 0-.668.344-.668.687v4.125c0 .418.336.688.668.688.402 0 .664-.27.664-.688zm3.336 0v4.125c0 .418.336.688.664.688.406 0 .707-.27.707-.688v-4.125a.71.71 0 00-.707-.687c-.328 0-.664.344-.664.687zm6.035 0c0-.343-.297-.687-.664-.687-.367 0-.668.344-.668.687v4.125c0 .418.3.688.668.688.367 0 .664-.27.664-.688zm0 0" id="surface1"/></svg>