<?xml version="1.0" encoding="UTF-8"?>
<svg xmlns="http://www.w3.org/2000/svg" xmlns:xlink="http://www.w3.org/1999/xlink" width="10px" height="10px" viewBox="0 0 10 10" version="1.1">
<g id="surface1">
<path fill='#fff' style=" stroke:none;fill-rule:nonzero;fill-opacity:1;" d="M 5 0 C 2.238281 0 0 2.238281 0 5 C 0 7.761719 2.238281 10 5 10 C 7.761719 10 10 7.761719 10 5 C 10 2.238281 7.761719 0 5 0 Z M 5 9.0625 C 2.757812 9.0625 0.9375 7.238281 0.9375 5 C 0.9375 2.761719 2.757812 0.9375 5 0.9375 C 7.242188 0.9375 9.0625 2.761719 9.0625 5 C 9.0625 7.238281 7.242188 9.0625 5 9.0625 Z M 4.984375 3.4375 C 5.394531 3.4375 5.78125 3.601562 6.074219 3.894531 C 6.257812 4.078125 6.550781 4.078125 6.734375 3.898438 C 6.921875 3.714844 6.921875 3.417969 6.738281 3.234375 C 6.269531 2.761719 5.648438 2.5 4.984375 2.5 C 4.320312 2.5 3.695312 2.761719 3.226562 3.234375 C 2.261719 4.207031 2.261719 5.792969 3.226562 6.765625 C 3.695312 7.238281 4.320312 7.5 4.984375 7.5 C 5.648438 7.5 6.269531 7.238281 6.738281 6.765625 C 6.921875 6.582031 6.921875 6.285156 6.734375 6.101562 C 6.550781 5.921875 6.257812 5.921875 6.074219 6.105469 C 5.78125 6.402344 5.394531 6.5625 4.980469 6.5625 C 4.980469 6.5625 4.984375 6.5625 4.980469 6.5625 C 4.570312 6.5625 4.183594 6.402344 3.890625 6.105469 C 3.285156 5.496094 3.285156 4.503906 3.890625 3.894531 C 4.183594 3.601562 4.570312 3.4375 4.984375 3.4375 Z M 4.984375 3.4375 "/>
</g>
</svg>
