<svg xmlns="http://www.w3.org/2000/svg" width="10" height="10"><path fill="#fff" d="M5 0a5 5 0 100 10A5 5 0 005 0zm0 9.063A4.067 4.067 0 01.937 5 4.067 4.067 0 015 .937 4.067 4.067 0 019.063 5 4.067 4.067 0 015 9.063zm-.016-5.626c.41 0 .797.165 1.09.458a.468.468 0 10.664-.66A2.452 2.452 0 004.984 2.5a2.46 2.46 0 00-1.757.734 2.516 2.516 0 000 3.532 2.461 2.461 0 001.757.734c.664 0 1.286-.262 1.754-.734a.468.468 0 10-.664-.66c-.293.296-.68.457-1.094.457 0 0 .004 0 0 0-.41 0-.796-.16-1.09-.458a1.573 1.573 0 010-2.21 1.54 1.54 0 011.094-.458zm0 0" id="surface1"/></svg>