<?xml version="1.0" encoding="UTF-8"?>
<svg xmlns="http://www.w3.org/2000/svg" xmlns:xlink="http://www.w3.org/1999/xlink" width="25px" height="22px" viewBox="0 0 24 22" version="1.1">
<g id="surface1">
<path fill="#fff" style=" stroke:none;fill-rule:nonzero;fill-opacity:1;" d="M 7.152344 8.210938 L 16.847656 8.210938 L 13.445312 1.507812 C 13.191406 1 13.382812 0.378906 13.871094 0.117188 C 14.363281 -0.144531 14.964844 0.0507812 15.222656 0.554688 L 19.101562 8.210938 L 22.667969 8.210938 C 23.402344 8.210938 24 8.863281 24 9.585938 C 24 10.386719 23.402344 10.960938 22.667969 10.960938 L 20.503906 19.914062 C 20.171875 21.140625 19.140625 22 17.917969 22 L 6.046875 22 C 4.859375 22 3.792969 21.140625 3.496094 19.914062 L 1.332031 10.960938 C 0.597656 10.960938 0 10.386719 0 9.585938 C 0 8.863281 0.597656 8.210938 1.332031 8.210938 L 4.898438 8.210938 L 8.777344 0.554688 C 9.035156 0.0507812 9.636719 -0.144531 10.128906 0.117188 C 10.617188 0.378906 10.808594 1 10.554688 1.507812 Z M 7.960938 13.023438 C 7.960938 12.679688 7.699219 12.335938 7.296875 12.335938 C 6.964844 12.335938 6.628906 12.679688 6.628906 13.023438 L 6.628906 17.148438 C 6.628906 17.566406 6.964844 17.835938 7.296875 17.835938 C 7.699219 17.835938 7.960938 17.566406 7.960938 17.148438 Z M 11.296875 13.023438 L 11.296875 17.148438 C 11.296875 17.566406 11.632812 17.835938 11.960938 17.835938 C 12.367188 17.835938 12.667969 17.566406 12.667969 17.148438 L 12.667969 13.023438 C 12.667969 12.679688 12.367188 12.335938 11.960938 12.335938 C 11.632812 12.335938 11.296875 12.679688 11.296875 13.023438 Z M 17.332031 13.023438 C 17.332031 12.679688 17.035156 12.335938 16.667969 12.335938 C 16.300781 12.335938 16 12.679688 16 13.023438 L 16 17.148438 C 16 17.566406 16.300781 17.835938 16.667969 17.835938 C 17.035156 17.835938 17.332031 17.566406 17.332031 17.148438 Z M 17.332031 13.023438 "/>
</g>
</svg>
